<mxfile host="Electron" modified="2024-05-05T06:21:56.055Z" agent="Mozilla/5.0 (Macintosh; Intel Mac OS X 10_15_7) AppleWebKit/537.36 (KHTML, like Gecko) draw.io/24.2.5 Chrome/120.0.6099.109 Electron/28.1.0 Safari/537.36" etag="NK467tePifL3IInEi28Z" version="24.2.5" type="device" pages="2">
  <diagram name="assets" id="kDEGalHkbDJ_t7ATjTdO">
    <mxGraphModel dx="1194" dy="824" grid="1" gridSize="10" guides="1" tooltips="1" connect="1" arrows="1" fold="1" page="1" pageScale="1" pageWidth="827" pageHeight="1169" math="0" shadow="0">
      <root>
        <mxCell id="0" />
        <mxCell id="1" parent="0" />
        <mxCell id="vux1cuEcO6zWetDc_M9q-1" value="" style="aspect=fixed;sketch=0;html=1;dashed=0;whitespace=wrap;fillColor=#2875E2;strokeColor=#ffffff;points=[[0.005,0.63,0],[0.1,0.2,0],[0.9,0.2,0],[0.5,0,0],[0.995,0.63,0],[0.72,0.99,0],[0.5,1,0],[0.28,0.99,0]];shape=mxgraph.kubernetes.icon2;kubernetesLabel=1;prIcon=crd" parent="1" vertex="1">
          <mxGeometry x="90" y="370" width="50" height="48" as="geometry" />
        </mxCell>
        <mxCell id="vux1cuEcO6zWetDc_M9q-3" value="" style="rounded=1;whiteSpace=wrap;html=1;strokeColor=#2975e2;fillColor=none;" parent="1" vertex="1">
          <mxGeometry x="80" y="140" width="350" height="180" as="geometry" />
        </mxCell>
        <mxCell id="vux1cuEcO6zWetDc_M9q-4" value="" style="shape=image;verticalLabelPosition=bottom;labelBackgroundColor=default;verticalAlign=top;aspect=fixed;imageAspect=0;image=https://www.linuxfoundation.jp/wp-content/uploads/2019/03/trademark-kubernetes-icon-correct.png;" parent="1" vertex="1">
          <mxGeometry x="80" y="120" width="46" height="46" as="geometry" />
        </mxCell>
        <mxCell id="vW04SF3unlw08sLKlmFm-1" value="" style="aspect=fixed;sketch=0;html=1;dashed=0;whitespace=wrap;fillColor=#2875E2;strokeColor=#ffffff;points=[[0.005,0.63,0],[0.1,0.2,0],[0.9,0.2,0],[0.5,0,0],[0.995,0.63,0],[0.72,0.99,0],[0.5,1,0],[0.28,0.99,0]];shape=mxgraph.kubernetes.icon2;kubernetesLabel=1;prIcon=deploy" vertex="1" parent="1">
          <mxGeometry x="150" y="370" width="50" height="48" as="geometry" />
        </mxCell>
        <mxCell id="vW04SF3unlw08sLKlmFm-2" value="" style="aspect=fixed;sketch=0;html=1;dashed=0;whitespace=wrap;fillColor=#2875E2;strokeColor=#ffffff;points=[[0.005,0.63,0],[0.1,0.2,0],[0.9,0.2,0],[0.5,0,0],[0.995,0.63,0],[0.72,0.99,0],[0.5,1,0],[0.28,0.99,0]];shape=mxgraph.kubernetes.icon2;kubernetesLabel=1;prIcon=pod" vertex="1" parent="1">
          <mxGeometry x="210" y="370" width="50" height="48" as="geometry" />
        </mxCell>
        <mxCell id="m96Up5hmHy77f7btiEg1-3" value="" style="shape=image;verticalLabelPosition=bottom;labelBackgroundColor=default;verticalAlign=top;aspect=fixed;imageAspect=0;image=data:image/svg+xml,PHN2ZyB4bWxuczp4bGluaz0iaHR0cDovL3d3dy53My5vcmcvMTk5OS94bGluayIgeG1sbnM9Imh0dHA6Ly93d3cudzMub3JnLzIwMDAvc3ZnIiB4bWw6c3BhY2U9InByZXNlcnZlIiBzdHlsZT0iZW5hYmxlLWJhY2tncm91bmQ6bmV3IDAgMCA2NCA2NDsiIGhlaWdodD0iNjQiIHdpZHRoPSI2NCIgdmlld0JveD0iMCAwIDY0IDY0IiB5PSIwcHgiIHg9IjBweCIgaWQ9IkxheWVyXzEiIHZlcnNpb249IjEuMSI+JiN4YTs8c3R5bGUgdHlwZT0idGV4dC9jc3MiPiYjeGE7CS5zdDB7ZmlsbDojMzI2Q0U1O30mI3hhOwkuc3Qxe2ZpbGw6I0MxRDJGNzt9JiN4YTsJLnN0MntmaWxsOm5vbmU7fSYjeGE7PC9zdHlsZT4mI3hhOzxnPiYjeGE7CTxwYXRoIGQ9Ik0xMC4xLDE3Yy0wLjktMC42LTEuMS0xLjctMC41LTIuNmMwLjEtMC4yLDAuMy0wLjQsMC41LTAuNUwzMSwwLjNjMC42LTAuNCwxLjQtMC40LDIsMGwyMC45LDEzLjYmIzEwOyYjOTsmIzk7YzAuOSwwLjYsMS4xLDEuNywwLjUsMi42Yy0wLjEsMC4yLTAuMywwLjQtMC41LDAuNUwzMywzMC41Yy0wLjYsMC40LTEuNCwwLjQtMiwwTDEwLjEsMTd6IiBjbGFzcz0ic3QwIi8+JiN4YTsJPHBhdGggZD0iTTM1LjMsMTkuNGgxLjRjMC42LDAsMS4xLTAuNSwxLjEtMS4xYzAtMC4yLTAuMS0wLjQtMC4xLTAuNUwzMyw5LjVjLTAuMy0wLjUtMS0wLjctMS41LTAuNCYjMTA7JiM5OyYjOTtjLTAuMiwwLjEtMC4zLDAuMi0wLjQsMC40bC00LjcsOC4yYy0wLjMsMC41LTAuMSwxLjIsMC40LDEuNWMwLjIsMC4xLDAuNCwwLjEsMC41LDAuMWgxLjRjMC42LDAsMS4xLDAuNSwxLjEsMS4xbDAsMHY5LjRsMSwwLjYmIzEwOyYjOTsmIzk7YzAuNywwLjUsMS43LDAuNSwyLjQsMGwxLTAuNnYtOS40QzM0LjIsMTkuOSwzNC43LDE5LjQsMzUuMywxOS40QzM1LjMsMTkuNCwzNS4zLDE5LjQsMzUuMywxOS40eiIgY2xhc3M9InN0MSIvPiYjeGE7CTxwYXRoIGQ9Ik0zMSw2My43YzAuMiwwLjEsMC40LDAuMiwwLjYsMC4zYy0wLjQtMC4yLTAuOC0wLjQtMS4yLTAuNkwzMSw2My43eiBNMjkuOCwzNC4ybC0yLjEsMS4zJiMxMDsmIzk7JiM5O2MwLjcsMC40LDEuNCwwLjgsMi4xLDEuMlYzNC4yeiBNMzQuMiwzOC42YzEuOCwwLjYsMy42LDEsNS41LDEuNWMyLDAuNSw0LDEsNiwxLjZsLTYuNS00LjJjLTEuNy0wLjUtMy40LTEtNS0xLjdMMzQuMiwzOC42eiYjMTA7JiM5OyYjOTsgTTM0LjIsNDkuOVY1MGMwLDAuNS0wLjUsMC45LTEuMSwwLjloLTIuMmMtMC42LDAtMS4xLTAuNC0xLjEtMC45di0xLjJjLTQuNi0xLjItOS4xLTIuNi0xMy02LjJsLTIuNywxLjdjNC4xLDQsOS4yLDUuMywxNC42LDYuNiYjMTA7JiM5OyYjOTtjNSwxLjIsMTAuMSwyLjUsMTQuNCw2LjFsMi43LTEuN0M0Mi41LDUyLjMsMzguNCw1MSwzNC4yLDQ5Ljl6IE0xNi4zLDU0LjFsNy4xLDQuNmMzLjcsMC45LDcuNCwyLjEsMTAuNyw0LjNsMi43LTEuOCYjMTA7JiM5OyYjOTtjLTMuNi0yLjUtNy44LTMuNS0xMi4xLTQuNkMyMS44LDU2LDE5LDU1LjMsMTYuMyw1NC4xeiBNMjkuOCwzOS4xYy0xLjQtMC42LTIuNy0xLjQtMy45LTIuM2wtMi43LDEuOGMyLDEuNiw0LjMsMi42LDYuNiwzLjQmIzEwOyYjOTsmIzk7TDI5LjgsMzkuMXogTTM5LjIsNDIuMWMtMS43LTAuNC0zLjMtMC44LTUtMS4zdjIuNWMwLjYsMC4yLDEuMiwwLjMsMS45LDAuNWM1LjUsMS4zLDExLjEsMi43LDE1LjcsNy4zYzAuMSwwLjEsMC4yLDAuMiwwLjMsMC4zJiMxMDsmIzk7JiM5O2wxLjgtMS4yYzAuMy0wLjIsMC41LTAuNCwwLjYtMC43Yy0wLjItMC4yLTAuNC0wLjQtMC42LTAuNkM0OS44LDQ0LjcsNDQuNiw0My40LDM5LjIsNDIuMUwzOS4yLDQyLjF6IE0zNS42LDQ1LjcmIzEwOyYjOTsmIzk7Yy0wLjUtMC4xLTAuOS0wLjItMS40LTAuM3YyLjRjNC43LDEuMiw5LjUsMi43LDEzLjQsNi40bDIuNy0xLjdjMCwwLDAsMCwwLDBDNDYuMSw0OC4zLDQxLDQ3LjEsMzUuNiw0NS43eiBNMjkuOCw0NC4xJiMxMDsmIzk7JiM5O2MtMy0xLTUuOS0yLjMtOC41LTQuNGwtMi43LDEuN2MzLjMsMi44LDcuMSw0LjEsMTEuMiw1LjJWNDQuMXoiIGNsYXNzPSJzdDIiLz4mI3hhOwk8cGF0aCBkPSJNMTIuNiw0NS43Yy0wLjEtMC4xLTAuMS0wLjEtMC4yLTAuMkwxMC4xLDQ3Yy0wLjEsMC4xLTAuMiwwLjItMC4zLDAuM2MwLjIsMC4yLDAuNCwwLjQsMC42LDAuNiYjMTA7JiM5OyYjOTtjNC4xLDQuMSw5LjMsNS40LDE0LjcsNi43YzQuNiwxLjEsOS40LDIuMywxMy41LDUuNGwyLjctMS44Yy0zLjgtMy04LjMtNC4xLTEzLjEtNS4zQzIyLjgsNTEuNywxNy4xLDUwLjMsMTIuNiw0NS43TDEyLjYsNDUuN3oiIGNsYXNzPSJzdDIiLz4mI3hhOwk8cGF0aCBkPSJNMzkuMiwzNy41bC01LTMuM3YxLjVDMzUuOCwzNi41LDM3LjUsMzcsMzkuMiwzNy41eiBNMzQuMiwzOC42djIuMmMxLjcsMC41LDMuMywwLjksNSwxLjMmIzEwOyYjOTsmIzk7YzUuNCwxLjMsMTAuNiwyLjYsMTQuNyw2LjdjMC4yLDAuMiwwLjQsMC40LDAuNiwwLjZjMC40LTAuOSwwLjItMS45LTAuNi0yLjRsLTguMi01LjNjLTItMC43LTQtMS4yLTYtMS42JiMxMDsmIzk7JiM5O0MzNy44LDM5LjYsMzYsMzkuMSwzNC4yLDM4LjZMMzQuMiwzOC42eiBNMjkuOCwzNi44Yy0wLjctMC40LTEuNC0wLjgtMi4xLTEuMmwtMS45LDEuMmMxLjIsMC45LDIuNiwxLjcsMy45LDIuM0wyOS44LDM2Ljh6JiMxMDsmIzk7JiM5OyBNMzYuMSw0My43Yy0wLjYtMC4yLTEuMi0wLjMtMS45LTAuNXYyLjFjMC41LDAuMSwwLjksMC4yLDEuNCwwLjNjNS40LDEuMywxMC42LDIuNiwxNC43LDYuN2MwLDAsMCwwLDAsMGwxLjgtMS4xJiMxMDsmIzk7JiM5O2MtMC4xLTAuMS0wLjItMC4yLTAuMy0wLjNDNDcuMiw0Ni40LDQxLjUsNDUuMSwzNi4xLDQzLjd6IE0yOS44LDQyYy0yLjQtMC44LTQuNi0xLjktNi42LTMuNGwtMS44LDEuMmMyLjYsMi4xLDUuNSwzLjQsOC41LDQuNFY0MiYjMTA7JiM5OyYjOTt6IE0yOS44LDQ2LjdjLTQuMS0xLjEtNy45LTIuNC0xMS4yLTUuMmwtMS44LDEuMmMzLjgsMy41LDguNCw1LDEzLDYuMlY0Ni43eiBNMzQuMiw0OS45YzQuMywxLjEsOC4zLDIuNCwxMS42LDUuNGwxLjgtMS4yJiMxMDsmIzk7JiM5O2MtNC0zLjctOC43LTUuMi0xMy40LTYuNEwzNC4yLDQ5Ljl6IE0xNC4yLDQ0LjRsLTEuOCwxLjJjMC4xLDAuMSwwLjEsMC4xLDAuMiwwLjJjNC41LDQuNSwxMC4yLDUuOSwxNS43LDcuMyYjMTA7JiM5OyYjOTtjNC43LDEuMiw5LjMsMi4zLDEzLjEsNS4zbDEuOC0xLjJjLTQuMy0zLjYtOS40LTQuOS0xNC40LTYuMUMyMy40LDQ5LjcsMTguMyw0OC40LDE0LjIsNDQuNHogTTEwLjQsNDcuOWMtMC4yLTAuMi0wLjQtMC40LTAuNi0wLjYmIzEwOyYjOTsmIzk7Yy0wLjcsMC43LTAuNywxLjksMCwyLjZjMC4xLDAuMSwwLjIsMC4yLDAuMywwLjJsNi4xLDRjMi43LDEuMSw1LjYsMS44LDguNCwyLjVjNC40LDEuMSw4LjUsMi4xLDEyLjEsNC42bDEuOS0xLjImIzEwOyYjOTsmIzk7Yy00LjEtMy4xLTguOS00LjMtMTMuNS01LjRDMTkuNyw1My4zLDE0LjUsNTIsMTAuNCw0Ny45TDEwLjQsNDcuOXogTTMwLjQsNjMuM2MwLjQsMC4yLDAuOCwwLjQsMS4yLDAuNmMwLjUsMC4xLDEsMCwxLjQtMC4zbDEtMC43JiMxMDsmIzk7JiM5O2MtMy4zLTIuMi03LTMuMy0xMC43LTQuM0wzMC40LDYzLjN6IiBjbGFzcz0ic3QwIi8+JiN4YTs8L2c+JiN4YTs8L3N2Zz4=;" vertex="1" parent="1">
          <mxGeometry x="500" y="150" width="50" height="50" as="geometry" />
        </mxCell>
        <mxCell id="m96Up5hmHy77f7btiEg1-4" value="" style="shape=image;verticalLabelPosition=bottom;labelBackgroundColor=default;verticalAlign=top;aspect=fixed;imageAspect=0;image=data:image/svg+xml,PHN2ZyB4bWxucz0iaHR0cDovL3d3dy53My5vcmcvMjAwMC9zdmciIGhlaWdodD0iNjQiIHdpZHRoPSI2NCIgdmlld0JveD0iOS4yOCAtOC4yOCA2NCA2NCI+PGcgZmlsbD0iI2ZlZmVmZSI+PHBhdGggZD0iTTM3Ljc0NSA0My42MjNjLjAwNSAwIC4wMS4wMTcuMDEuMDVsLjAxNy43LjEwNS0uNTM0Yy0uMDI4LS4zMzYtLjI5Mi0uMTY1LS4xMzItLjIwNHpNNTIuMiAyNC43ODJjLS4wMDUuMDA1LS4wMTcuMDA1LS4wMjIuMDEuMDA1LjAwNS4wMTcuMDEuMDIyLjAxNy0uMDA1LS4wMDUgMC0uMDE3IDAtLjAyOHoiLz48cGF0aCBkPSJNNDMuMDk0IDEuNjU0eiIvPjwvZz48cGF0aCBmaWxsPSIjZmU3MzNlIiBkPSJNNTAuODM1IDQ4LjEwMmwuMTMyLTIuNDAyYy4yMi0xLjc0Ni4wMS0zLjUzLjQ2OC01LjI1Ni4yMjYtLjg5Mi0uNDk2LTEuOTQuNDMtMi43MjJsLS4yMy0uNzZjLS4yNi0uNDMtLjEyNy0uODQ4LjAyOC0xLjI2Ny0uMDE3LTEuNTMyIDAtMy4wNjMuMjc1LTQuNTc4bC4yNTMtNi4zMmMtLjAwNS0uMDA1LS4wMTctLjAxLS4wMjItLjAxNy00LjUgMi4wNjYtOC43NDMtLjgyNi05LjQ2NS00LjI5Ny0uNDc0LTIuMjgtLjIyLTQuNDM1IDEuNTYtNi4xNzYuMjk3LS4yOTIuNTUtLjYyOC44MjYtLjk0OC43MjctNC4zNi4yLTguMzYtMy41MDQtMTEuNDc2LjU1Ni0uMzIgMS4wNTgtLjEzOCAxLjUtLjIyLTQuNTYtMS4xNS0xMC4xIDEuOTc1LTExLjkzNiA2Ljc0Ny0uNTUgMS40MzItLjg0OCAyLjktLjc1NSA0LjQ0NiA0LjUzLTIuMSA4LjYuNDA4IDkuNzA3IDQuMjI2IDEuMTYyIDMuOTcyLTEuOTM0IDguMTc2LTYuMDUgOC4yMzYtMS4yLjAxNy0yLjM0LS4xODItMy40NzYtLjUxOGwuMjUzIDYuNTc4Yy4xNiAxLjQzOC4zMyAyLjg3LjI2IDQuMzJsLjAzMyAxLjAyNS0uMDMzLjY4M2MuMzM2IDEuMzc3LjQwOCAyLjc5My41MTIgNC4yMDRhLjc4Ljc4IDAgMCAxLS4wMjItLjExYy4wMDUuMDQuMDE3LjA3Mi4wMjIuMWwuMzQ3IDcuMTk1Yy4wNzIuOTkyLS4yODYgMS40ODctMS4yIDEuNzQtMS4wOC4zMDMtMi4xNDMuNjY3LTMuMjEyIDEuMDA4IDEuNDMyLjE5OCAyLjg0My4yMiA0LjI1My4xODcgMS41MjYtLjAzMyAyLjIyLS43IDIuMzctMi4yMjZsLjI2NC0yLjg5Mi4yOTctNS4yNDVoLjIxNXY0Ljk4NmwuMDg4IDIuMjdjLjIyIDMuNTIuMzI1IDMuNDk4LTMuMTg0IDQuMi0uMDgzLjAxNy0uMTU0LjA2Ni0uMjMuMWwuNjI4LjQyYy4wNjYuMDE3LjEyLjA0NC4xNTQuMTA1LjgzNy4wMDUgMS42OC4wNzcgMi41MDcgMCAxLjUwNC0uMTQzIDIuMjE1LS45NDggMi4zMjUtMi40NC4wNjYtLjk2LjE2NS0xLjkxNy4yNDgtMi44NzYtLjEzMi0xLjI3My4wNi0yLjUyMy4yOTctMy43NzRsLS4wMTctLjdjMC0uMDMzLS4wMS0uMDU1LS4wMS0uMDUtLjE2LjA0LjEwNS0uMTMyLjEzMi4yMDRsLjA4OC0uNDQ2djUuNzc0bC4wNSAyLjAyN2MuMDI4IDIuNDUyLS4xMjcgMi42NzItMi40NjMgMy4zNzItLjY0NS4xOTMtMS4zMTcuMy0xLjk1Ni41MjMtLjQ2My4xNi0xLjA1Mi4wNzItMS40ODcuNjE3IDEuOS0uMDcyIDMuNjguMTQzIDUuNDUtLjE0MyAxLjgzLS4yOTcgMi41NTYtMS4wMzYgMi45My0yLjgyLjI3NS0xLjMuNC0yLjY2Ljg5Mi00IC4wNzIuMTQzLjEyNy4yLjE0My4yODZsLjc1IDMuNzI0Yy4zNDIgMS43MzUgMS4wNDcgMi40NzQgMi44IDIuNzgyIDEuODI0LjMxNCAzLjY3LjEgNS41Ni4xNDMtLjI3LS40NjMtLjY5NC0uMzg2LTEuMDM2LS40ODUtMS4xNzMtLjM0Mi0yLjM3LS42MzQtMy41Mi0xLjAzLS44MzctLjI5Mi0xLjQzOC0uODI2LTEuNDI3LTEuODU3bC4wMS04LjQ2Mkg0NWwuMzU4IDUuM2MuMjE1IDQuMDg4LjcgNC41MzQgNC44MDQgNC4zMDguMjMtLjM4Ni44LS4wODMgMS4wMTQtLjQ5Ni0uOTg2LS4wMDUtMS44NDYtLjQ4LTIuNzUtLjc4Mi0uNTA3LS4xNy0uNzkzLS42MjgtLjc4Mi0xLjIuMDQ0LTIuODk4LS4wNjYtNS44MDcuMzI1LTguNjk0bC42MTIgNy4yNzhjLjA4OCAxLjEzNS42IDIuMDIyIDEuOCAyLjEgMS42LjEgMy4yMjMuMDI4IDQuODM3LjAyOC0uODU0LS40My0xLjczLS42ODMtMi42LS45Ni0xLjk3Mi0uNjM0LTEuOTYtLjY0LTEuNzgtMi42NDR6TTM4LjQyOCA2Ljc2N2ExLjQ4IDEuNDggMCAwIDEtMS40NjUgMS40NjVjLS44NjUuMDE3LTEuNTE1LS40OC0xLjUzMi0xLjYwMy4wOTQtLjgxNS41NS0xLjM3MiAxLjUyLTEuMzk0IDEuMDMtLjAxNyAxLjQ5My42NzggMS40NzYgMS41MzJ6bTYuNjIyIDI0LjA5N2MuMDA1IDIuMjMtMS43MDIgNC4xNzYtMy42NTMgNC4xNy0xLjg0LS4wMDUtMy43Mi0yLjE3Ni0zLjY1My00LjIyNmwtLjM0Mi0yLjA2NmMxLjMxNy44OTggMi40MjQgMS44MTggMy45MDYgMS44NSAxLjUxNS4wMjggMi43MDUtLjc1IDMuOTQ1LTEuNjU4LjI2NC43MjctLjQwMiAxLjI5NS0uMjA0IDEuOTI4eiIvPjxwYXRoIGZpbGw9IiNiNWQyZjMiIGQ9Ik0zMS4wOTUgMzUuN2wtLjMyLS4xMjdjLTEuNS0uNjE3LTIuODE1LTEuNTY1LTQuMDI3LTIuNjE3LTQuMzc0LTMuNzgtNy4yNi04LjUxMi03Ljk2LTE0LjI1Mi0uNzkzLTYuNTIzLjY2Ny0xMi41NDUgNS4wMi0xNy43MTggMy45NzItNC43MTYgOS4wMzUtNy40NjUgMTUuMDgtOC4xIDYuNzE2LS43IDEyLjc0OCAxLjE4IDE3LjgyOCA1LjgxOCA0LjIzNyAzLjg2NyA2LjcgOC42NiA3LjM0NCAxNC4yOTYuNTQgNC44LS4zMjUgOS40MzctMi43OTMgMTMuNjUyLTIuMjQyIDMuODMtNS4yMjggNi45MzYtOS4yNjcgOC45MDNsLS4zMy4xNmMtLjE1NC40Mi0uMjkyLjgzNy0uMDI4IDEuMjY3LjA5NC0uMDgzLjE3Ni0uMTg3LjI4Ni0uMjQ4IDYuMS0zLjIyOCAxMC4zMy04LjAyNyAxMi4zMDgtMTQuNzA0LjE3LS41NjcuNDM1LS44NDggMS4wNy0uNzgyLjg2LjA4OCAxLjEtLjQ4NSAxLjEtMS4ybC4wMDUtOC4yNDJjMC0uNi0uMTQzLTEuMjQtLjc1NS0xLjMwNi0xLjEyNC0uMTMyLTEuMjYyLS45NTMtMS40ODctMS43NTJDNjIuODM0IDQuMSA2MC4zLjIyMiA1Ni41LTIuNzQ4Yy03Ljc2OC02LjEtMTYuMjk2LTcuMi0yNS4yNDMtMy4wOEMyNC42MTYtMi43NyAyMC4zOCAyLjUzNiAxOC40NjMgOS42MzdjLS4xMi40NC0uMDY2Ljk2NC0uODE1LjgtMS4wNy0uMjItMS40Ny40MDgtMS40NzYgMS4zNTVsLS4wMDUgOC4yNDJjMCAuOTE1LjQ2MyAxLjQgMS4zNDQgMS4xODQuOC0uMTk4IDEuMDAzLjIwNCAxLjE2OC44Mi43MTYgMi42MzMgMS45MTIgNS4wNCAzLjUzIDcuMjQgMi4zNyAzLjIxMiA1LjI1NiA1LjggOC45MjUgNy40MzJsLS4wNC0xLjAzeiIvPjxwYXRoIGZpbGw9IiNmZTY4NGIiIGQ9Ik0zMS4xIDM3LjM5OGMtLjgxNSAyLjI4Ni0yLjk4NiAyLjIzLTQuODMyIDIuODA0IDEuMzg4LjM1OCAyLjguNzcgNC4xODcuNTM0LjgyNi0uMTQzLjk4Ni4xNTQgMS4xMDcuNjQ1bC4wMjguMTE2LjAyMi4xYy0uMTA1LTEuNDE2LS4xNzYtMi44MjYtLjUxMi00LjJ6Ii8+PHBhdGggZmlsbD0iI2ZlNjQ0NiIgZD0iTTUxLjQzNSA0MC40NWMxLjc2My44IDMuNDI3LS4wMDUgNS4xMy0uMjM3LTEuNjY0LS43MDUtMy44MTgtLjM0Mi00LjY5NC0yLjQ4NS0uOTMuNzgyLS4yIDEuODMtLjQzNSAyLjcyMnoiLz48cGF0aCBmaWxsPSIjZmVkNmM4IiBkPSJNMzcuOTY1IDQzLjM4bC0uMDg4LjQ0Ni0uMTA1LjUzNGMtLjIzNyAxLjI1LS40MyAyLjUtLjI5NyAzLjc3NC40MTMuMjE1LjEuNzgyLjUgMS4wMTRWNDMuMzh6Ii8+PHBhdGggZmlsbD0iI2ZlZWJlMyIgZD0iTTM0LjczIDQxLjM2NWwtLjI5NyA1LjI0NS41MTItLjI2di00Ljk4NmgtLjIxNXoiLz48cGF0aCBmaWxsPSIjZmU5MTY2IiBkPSJNMjkuNTUzIDUzLjQ1MmgyLjg0M2wtLjE1NC0uMTA1LS42MjgtLjQyYy0uNjIzLS4wMzMtMS4yMDcuMTA1LTIuMDYuNTIzeiIvPjxwYXRoIGZpbGw9IiNmZThmNjQiIGQ9Ik01MC4xNjggNTMuNDUyaDIuNzY2Yy0uNTYyLS4zMjUtMS4xMTMtLjYtMS43NTItLjQ5Ni0uMjE1LjQyLS43ODguMS0xLjAxNC40OTZ6Ii8+PHBhdGggZmlsbD0iI2UyZjVmYyIgZD0iTTUyLjAwMyAzNS41NGM0LjAzOC0xLjk2IDcuMDItNS4wNjggOS4yNjctOC45MDMgMi40NjgtNC4yMTUgMy4zMzMtOC44NTMgMi43OTMtMTMuNjUyQzYzLjQzIDcuMzQ1IDYwLjk2IDIuNTUyIDU2LjcyLTEuMyA1MS42NC01Ljk0MyA0NS42MDctNy44MjcgMzguOS03LjEyMmMtNi4wMzguNjI4LTExLjEwNyAzLjM4My0xNS4wOCA4LjFDMTkuNDU0IDYuMTUgMTggMTIuMTcgMTguNzkzIDE4LjY5NGMuNyA1Ljc0NiAzLjU4NyAxMC40NzMgNy45NiAxNC4yNTIgMS4yMTggMS4wNTIgMi41MjMgMi4wMDUgNC4wMjcgMi42MTcuMTA1LjA0NC4yLjA4OC4zMi4xMjcuMDcyLTEuNDUtLjEtMi44OC0uMjYtNC4zMmwtLjMzLS4yMzdjLTEuMTE4LS44LTIuMDc3LTEuODA3LTMuMDQtMi43ODgtLjI5Mi0uMjk3LS42NTYtLjU1LS42NTYtMS4wMzYtLjY1LjQ2OC0xLjExOC4xNDMtMS41LS4zNzUtMi4xMTYtMi44ODctMy4zOTQtNi4wODgtMy41NjQtOS43LS4xNTQtMy4xODQuMTMyLTYuMjggMS40Ny05LjI2IDEuNzAyLTMuNzg1IDQuMzItNi42NzcgNy44MzQtOC44MjYuNTk1LS4zNjQuOTM3LS4wNCAxLjM1LjIzLjQwMi0uMDQuNzYtLjE3NiAxLjAyLS41MDdsLS4wNS0uMTE2Yy0uMzUzLS43NDQtLjM3LTEuNTg3LjQ4LTEuNzg1Ljg1NC0uMjA0IDEuMzQuNSAxLjM0NCAxLjM4OEM0MS41NzItMy43MjYgNDcuNS0yLjg3NyA1Mi44NSAxLjIwNWM0IDMuMDUyIDYuMjkyIDcuMTQ1IDcgMTIuMTM3LjkwNCA2LjQxOC0xLjI2NyAxMS43NC01Ljc0IDE2LjI0LS41My41My0xLjEyNCAxLjAwOC0xLjc5NiAxLjM2NmExMC4wOSAxMC4wOSAwIDAgMS0uMzQ3LjE3MWMtLjI3NSAxLjUxNS0uMjkyIDMuMDQ3LS4yNzUgNC41NzhsLjMyLS4xNnoiLz48cGF0aCBmaWxsPSIjY2RlY2Y2IiBkPSJNNTQuMSAyOS42YzQuNDY4LTQuNSA2LjY0LTkuODIzIDUuNzQtMTYuMjQtLjctNC45OTctMi45OTItOS4xLTctMTIuMTM3QzQ3LjUtMi44NyA0MS41NTctMy43MTIgMzUuMi0xLjYyNGMtLjAxLjAwNS0uMDIyLjAxNy0uMDMzLjAyMi0uNS4zMi0uODkyIDEuMDA4LTEuNjE0LjU3OC0uMDQ0LS4wMjgtLjA4My0uMDUtLjEyNy0uMDgzLS4yNi4zMy0uNjEyLjQ2OC0xLjAyLjUwNy0uMDE3LjA2Ni0uMDQuMTI3LS4wNi4xOTMtLjQ1NyAxLjI4NC0xLjgzIDEuNjItMi43NSAyLjQtMi40OTYgMi4wODgtNC4zNDcgNC42LTUuNDM4IDcuNjItMS43NTIgNC44OC0xLjM5NCA5LjY2My45NTMgMTQuMjguMzguNzUuODQ4IDEuNDYgMS4zNSAyLjEzOGExLjggMS44IDAgMCAxIC4zNTMgMS4yODRjMCAuNDk2LjM2NC43NTUuNjU2IDEuMDUyLjk3Ljk4IDEuOTIzIDEuOTc4IDMuMDQgMi43ODhsLjMzLjIzNy0uMjUzLTYuNTc4Yy0xLjkxNy0xLjI1Ni0zLjMxNy0yLjg1NC0zLjU2LTUuMjM0LS4zMDMtMi45MzYuOTMtNS4xMDcgMy4zMzMtNi42ODguMDEtLjAwNS4wMjItLjAxNy4wMzMtLjAyMi0uMDk0LTEuNTQzLjIwNC0zLjAyLjc1NS00LjQ0NkMzMi45NzQgMy42NSAzOC41MTYuNTIgNDMuMDgzIDEuNjY1YzMuMDQ3LjQ5NiA1LjUzNyAxLjg4IDcuMzIyIDQuNDE4IDEuNDI3IDIuMDMzIDIuMTY1IDQuMjc1IDIgNi43NzYgMS43MiAxLjMwNiAzLjEwNyAyLjgzNyAzLjMzMyA1LjEwMi4zMDMgMy4wNDctLjk5NyA1LjI3Mi0zLjU2IDYuODI2di4wMjhsLS4yNTMgNi4zMmMuMTItLjA1NS4yMzctLjEuMzQ3LS4xNy42ODMtLjM1OCAxLjI3OC0uODM3IDEuODA3LTEuMzcyeiIvPjxwYXRoIGZpbGw9IiNmZTZiM2MiIGQ9Ik00Ni42NyAxMi42MTJjMS45LS45MyAzLjcyNC0uNDMgNS41NDguMTdsLjIwNC4wNjZjLjE1NC0yLjUwNy0uNTg0LTQuNzUtMi02Ljc3Ni0xLjc4NS0yLjU0LTQuMjc1LTMuOTIzLTcuMzA1LTQuNDEzLS40NjguMDg4LS45Ny0uMS0xLjUyNi4yMiAzLjcyNCAzLjExOCA0LjIzNyA3LjExOCAzLjUwNCAxMS40NzZsMS41ODctLjc0NHoiLz48cGF0aCBmaWxsPSIjZmU2MTQyIiBkPSJNNTUuNzYgMTcuOTU2Yy0uMjI2LTIuMjY0LTEuNjE0LTMuNzk2LTMuMzMzLTUuMTAybC0uMjA0LS4wNjZjLTEuODMtLjYtMy42NTgtMS4xMDItNS41NDgtLjE3bC0xLjI0LjYtLjM0Mi4xNi0uODI2Ljk0OGMtMS43ODUgMS43NC0yLjAzMyAzLjg5NS0xLjU2IDYuMTc2LjcyMiAzLjQ3NiA0Ljk2NCA2LjM3IDkuNDcgNC4zMDguMDA1LS4wMDUuMDE3LS4wMDUuMDIyLS4wMSAyLjU2Mi0xLjU2IDMuODY3LTMuOCAzLjU2LTYuODN6bS02LjczOCA2LjA4OGMtMi45MjUtLjAyMi01LjIwNi0yLjM0Ny01LjE4LTUuMjgzLjAyOC0yLjg5MiAyLjQtNS4xODQgNS4zMDUtNS4xNjIgMi45My4wMjIgNS4xNzMgMi4zMyA1LjE1IDUuMjk0LS4wMjIgMi45NDItMi4zMTQgNS4xOC01LjI3OCA1LjE1eiIvPjxwYXRoIGZpbGw9IiNmZTYxNDMiIGQ9Ik0zMC4zNTcgMTIuODdjLTIuNDAyIDEuNTgtMy42MzYgMy43NTItMy4zMzMgNi42ODguMjQyIDIuMzggMS42NDIgMy45NzggMy41NDggNS4yMjggMS4xNDYuMzQyIDIuMjguNTQgMy40ODcuNTIzIDQuMS0uMDYgNy4yMTItNC4yNiA2LjA1LTguMjM2LTEuMS0zLjgxNi01LjE4NS02LjMyMy05LjctNC4yMjMtLjAyMi4wMDUtLjAzMy4wMTctLjA0NC4wMjJ6bTMuMjg0IDExLjE3M2MtMy4wMDMuMDEtNS4zMjctMi4yOTItNS4zMTYtNS4yNzguMDA1LTIuOTMgMi4yOTItNS4yIDUuMjQtNS4yMTcgMi45OC0uMDE3IDUuMzYgMi4zMyA1LjM1IDUuMjYtLjAxIDIuODgtMi4zNzQgNS4yMjMtNS4yNzIgNS4yMzR6Ii8+PHBhdGggZmlsbD0iIzA3MDkwOSIgZD0iTTM4LjQ0IDMxLjI5NGMtLjIwNC0uMjA0LS4zNTMtLjQ4LS42OTQtLjQ4NS0uMDY2IDIuMDUgMS44MDcgNC4yMiAzLjY1MyA0LjIyNiAxLjk1Ni4wMDUgMy42NTgtMS45NCAzLjY1My00LjE3LS43MzguMzgtMS4yMDcgMS4xNjItMi4wNTUgMS4zOTQtMS43LjQ2My0zLjI0NS4zNDctNC41NTYtLjk2NHoiLz48cGF0aCBmaWxsPSIjZmRmY2ZiIiBkPSJNNDUuMjU0IDI4LjkzNmMtMS4yNC45LTIuNDI0IDEuNjg2LTMuOTQ1IDEuNjU4LTEuNDg3LS4wMjgtMi42LS45NTMtMy45MDYtMS44NWwuMzQyIDIuMDY2Yy4zNDIuMDEuNS4yOC42OTQuNDg1IDEuMzA2IDEuMyAyLjg2NSAxLjQyNyA0LjU1Ni45NjQuODQ4LS4yMyAxLjMxNy0xLjAwOCAyLjA1NS0xLjM5NC0uMTk4LS42MzQuNDY4LTEuMi4yMDQtMS45Mjh6Ii8+PHBhdGggZmlsbD0iI2ZlYTc3NyIgZD0iTTM2Ljk1MiA1LjI0Yy0uOTc1LjAxNy0xLjQzMi41NzMtMS41MiAxLjM5NC4wMTcgMS4xMjQuNjY3IDEuNjE0IDEuNTMyIDEuNjAzYTEuNDggMS40OCAwIDAgMCAxLjQ2NS0xLjQ2NWMuMDE3LS44Ni0uNDQ2LTEuNTU0LTEuNDc2LTEuNTMyeiIvPjxwYXRoIGZpbGw9IiNmZGZlZmUiIGQ9Ik0yNi44MDQgMjcuM2ExLjggMS44IDAgMCAwLS4zNTMtMS4yODRjLS40OTYtLjY3OC0uOTctMS4zODgtMS4zNS0yLjEzOC0yLjM0Ny00LjYxNy0yLjctOS40LS45NTMtMTQuMjggMS4xLTMuMDMgMi45NDItNS41MyA1LjQzOC03LjYyLjkyLS43NyAyLjI5Mi0xLjEwMiAyLjc1LTIuNC4wMjItLjA2LjA0NC0uMTI3LjA2LS4xOTMtLjQxMy0uMjctLjc1NS0uNTk1LTEuMzUtLjIzLTMuNTE1IDIuMTUtNi4xMzIgNS4wNC03LjgzNCA4LjgyNi0xLjM0IDIuOTgtMS42MjUgNi4wNzctMS40NyA5LjI2LjE3NiAzLjU5OCAxLjQ1IDYuODA0IDMuNTY0IDkuNy4zOC41MTguODU0Ljg0MyAxLjUuMzc1eiIvPjxwYXRoIGZpbGw9IiNmYmZkZmUiIGQ9Ik0zNS4xNS0xLjYwMmMuMDEtLjAwNS4wMjItLjAxNy4wMzMtLjAyMi0uMDEtLjg5OC0uNS0xLjU5Mi0xLjM0NC0xLjM4OHMtLjgzMiAxLjA0Ny0uNDggMS43ODVsLjA1LjExNmExLjM2IDEuMzYgMCAwIDAgLjEyNy4wODNjLjcyMi40MzUgMS4xMTMtLjI2IDEuNjE0LS41NzN6Ii8+PHBhdGggZmlsbD0iI2ZlZmVmZSIgZD0iTTU0LjMgMTguODk4Yy4wMjItMi45NTgtMi4yMi01LjI2Ny01LjE1LTUuMjk0LTIuOTItLjAyMi01LjI3OCAyLjI3LTUuMzA1IDUuMTYyYTUuMTggNS4xOCAwIDAgMCA1LjE3OSA1LjI4M2MyLjk2NC4wMjIgNS4yNTYtMi4yMTUgNS4yNzgtNS4xNXptLTUuMDIuNTczYy0uOTkyLjAxNy0xLjU3LS41NDUtMS42NTgtMS41Mi0uMDgzLS45LjczMy0xLjc1NyAxLjYzNi0xLjY5Ny45Ny4wNzIgMS41MTUuNjQgMS42MyAxLjY1My0uMTMyLjkwNC0uNTk1IDEuNTQ4LTEuNiAxLjU2NXptLTE1LjcxNy01LjkxN2MtMi45NDcuMDE3LTUuMjI4IDIuMjg2LTUuMjQgNS4yMTctLjAwNSAyLjk4NiAyLjMxNCA1LjMgNS4zMTYgNS4yNzggMi44OTgtLjAxIDUuMjYtMi4zNTIgNS4yNzItNS4yMjguMDA1LTIuOTM2LTIuMzc0LTUuMjgzLTUuMzUtNS4yNjd6bS4wMDUgNS45MTdjLS45OC4wMS0xLjU3LS41NS0xLjY0Ny0xLjUzNy0uMDcyLS45Ljc1LTEuNzUyIDEuNjU4LTEuNjc1Ljk2LjA4MyAxLjUyLjY0IDEuNiAxLjY1My0uMTIuOTMtLjYyOCAxLjU0OC0xLjYyIDEuNTZ6Ii8+PHBhdGggZmlsbD0iIzA5MGIwYiIgZD0iTTQ5LjI2IDE2LjI1NGMtLjkwNC0uMDY2LTEuNzIuNzgyLTEuNjM2IDEuNjk3LjA4OC45OC42NjcgMS41MzcgMS42NTggMS41MiAxLjAwOC0uMDE3IDEuNDc2LS42NiAxLjYtMS41NjUtLjExNi0xLjAxNC0uNjYtMS41OC0xLjYzLTEuNjUzeiIvPjxwYXRoIGZpbGw9IiMwOTBjMGMiIGQ9Ik0zMy41OCAxNi4yNmMtLjktLjA3Ny0xLjczLjc2Ni0xLjY1OCAxLjY3NS4wNzcuOTg2LjY2NyAxLjU0OCAxLjY0NyAxLjUzNy45OTItLjAxIDEuNS0uNjI4IDEuNjItMS41Ni0uMDk0LTEuMDItLjY1Ni0xLjU3Ni0xLjYtMS42NTN6Ii8+PC9zdmc+;" vertex="1" parent="1">
          <mxGeometry x="495" y="224" width="60" height="60" as="geometry" />
        </mxCell>
      </root>
    </mxGraphModel>
  </diagram>
  <diagram id="vE_yaKxlTUGEQNvK4EqN" name="kom">
    <mxGraphModel dx="995" dy="687" grid="1" gridSize="10" guides="1" tooltips="1" connect="1" arrows="1" fold="1" page="1" pageScale="1" pageWidth="827" pageHeight="1169" math="0" shadow="0">
      <root>
        <mxCell id="0" />
        <mxCell id="1" parent="0" />
        <mxCell id="-8ZKRgQTg2YevrRXHyow-2" value="" style="rounded=1;whiteSpace=wrap;html=1;strokeColor=#2975e2;fillColor=none;" vertex="1" parent="1">
          <mxGeometry x="110" y="140" width="400" height="270" as="geometry" />
        </mxCell>
        <mxCell id="-8ZKRgQTg2YevrRXHyow-8" value="Custom Operator (KOM)" style="rounded=1;whiteSpace=wrap;html=1;align=left;verticalAlign=top;fontColor=#666666;strokeColor=#666666;" vertex="1" parent="1">
          <mxGeometry x="155" y="310" width="310" height="80" as="geometry" />
        </mxCell>
        <mxCell id="-8ZKRgQTg2YevrRXHyow-3" value="" style="shape=image;verticalLabelPosition=bottom;labelBackgroundColor=default;verticalAlign=top;aspect=fixed;imageAspect=0;image=https://www.linuxfoundation.jp/wp-content/uploads/2019/03/trademark-kubernetes-icon-correct.png;" vertex="1" parent="1">
          <mxGeometry x="130" y="120" width="46" height="46" as="geometry" />
        </mxCell>
        <mxCell id="aLlqt8y1JiUJnb-y8_kx-3" value="" style="rounded=0;whiteSpace=wrap;html=1;strokeColor=none;fillColor=#CCCCCC;" vertex="1" parent="1">
          <mxGeometry x="155" y="172" width="310" height="98" as="geometry" />
        </mxCell>
        <mxCell id="-8ZKRgQTg2YevrRXHyow-4" value="" style="aspect=fixed;sketch=0;html=1;dashed=0;whitespace=wrap;fillColor=#2875E2;strokeColor=#ffffff;points=[[0.005,0.63,0],[0.1,0.2,0],[0.9,0.2,0],[0.5,0,0],[0.995,0.63,0],[0.72,0.99,0],[0.5,1,0],[0.28,0.99,0]];shape=mxgraph.kubernetes.icon2;kubernetesLabel=1;prIcon=deploy" vertex="1" parent="1">
          <mxGeometry x="285" y="330" width="50" height="48" as="geometry" />
        </mxCell>
        <mxCell id="-8ZKRgQTg2YevrRXHyow-6" value="" style="aspect=fixed;sketch=0;html=1;dashed=0;whitespace=wrap;fillColor=#2875E2;strokeColor=#ffffff;points=[[0.005,0.63,0],[0.1,0.2,0],[0.9,0.2,0],[0.5,0,0],[0.995,0.63,0],[0.72,0.99,0],[0.5,1,0],[0.28,0.99,0]];shape=mxgraph.kubernetes.icon2;kubernetesLabel=1;prIcon=crd" vertex="1" parent="1">
          <mxGeometry x="190" y="330" width="50" height="48" as="geometry" />
        </mxCell>
        <mxCell id="-8ZKRgQTg2YevrRXHyow-9" style="edgeStyle=orthogonalEdgeStyle;rounded=0;orthogonalLoop=1;jettySize=auto;html=1;strokeColor=#666666;" edge="1" parent="1" source="-8ZKRgQTg2YevrRXHyow-6">
          <mxGeometry relative="1" as="geometry">
            <mxPoint x="280" y="354" as="targetPoint" />
          </mxGeometry>
        </mxCell>
        <mxCell id="-8ZKRgQTg2YevrRXHyow-13" style="edgeStyle=orthogonalEdgeStyle;rounded=0;orthogonalLoop=1;jettySize=auto;html=1;exitX=0.5;exitY=0;exitDx=0;exitDy=0;exitPerimeter=0;entryX=0.5;entryY=1;entryDx=0;entryDy=0;entryPerimeter=0;" edge="1" parent="1" source="-8ZKRgQTg2YevrRXHyow-4" target="-8ZKRgQTg2YevrRXHyow-1">
          <mxGeometry relative="1" as="geometry">
            <mxPoint x="210" y="250" as="targetPoint" />
          </mxGeometry>
        </mxCell>
        <mxCell id="-8ZKRgQTg2YevrRXHyow-14" style="edgeStyle=orthogonalEdgeStyle;rounded=0;orthogonalLoop=1;jettySize=auto;html=1;entryX=0.5;entryY=1;entryDx=0;entryDy=0;entryPerimeter=0;exitX=0.5;exitY=0;exitDx=0;exitDy=0;exitPerimeter=0;" edge="1" parent="1" source="-8ZKRgQTg2YevrRXHyow-4" target="-8ZKRgQTg2YevrRXHyow-10">
          <mxGeometry relative="1" as="geometry" />
        </mxCell>
        <mxCell id="-8ZKRgQTg2YevrRXHyow-16" value="Deploy" style="edgeLabel;html=1;align=center;verticalAlign=middle;resizable=0;points=[];" vertex="1" connectable="0" parent="-8ZKRgQTg2YevrRXHyow-14">
          <mxGeometry x="0.4676" y="-1" relative="1" as="geometry">
            <mxPoint as="offset" />
          </mxGeometry>
        </mxCell>
        <mxCell id="-8ZKRgQTg2YevrRXHyow-15" style="edgeStyle=orthogonalEdgeStyle;rounded=0;orthogonalLoop=1;jettySize=auto;html=1;entryX=0.5;entryY=1;entryDx=0;entryDy=0;entryPerimeter=0;exitX=0.5;exitY=0;exitDx=0;exitDy=0;exitPerimeter=0;" edge="1" parent="1" source="-8ZKRgQTg2YevrRXHyow-4" target="-8ZKRgQTg2YevrRXHyow-11">
          <mxGeometry relative="1" as="geometry" />
        </mxCell>
        <mxCell id="-8ZKRgQTg2YevrRXHyow-1" value="" style="aspect=fixed;sketch=0;html=1;dashed=0;whitespace=wrap;fillColor=#2875E2;strokeColor=#ffffff;points=[[0.005,0.63,0],[0.1,0.2,0],[0.9,0.2,0],[0.5,0,0],[0.995,0.63,0],[0.72,0.99,0],[0.5,1,0],[0.28,0.99,0]];shape=mxgraph.kubernetes.icon2;kubernetesLabel=1;prIcon=crd" vertex="1" parent="1">
          <mxGeometry x="190" y="210" width="50" height="48" as="geometry" />
        </mxCell>
        <mxCell id="-8ZKRgQTg2YevrRXHyow-10" value="" style="aspect=fixed;sketch=0;html=1;dashed=0;whitespace=wrap;fillColor=#2875E2;strokeColor=#ffffff;points=[[0.005,0.63,0],[0.1,0.2,0],[0.9,0.2,0],[0.5,0,0],[0.995,0.63,0],[0.72,0.99,0],[0.5,1,0],[0.28,0.99,0]];shape=mxgraph.kubernetes.icon2;kubernetesLabel=1;prIcon=crd" vertex="1" parent="1">
          <mxGeometry x="285" y="210" width="50" height="48" as="geometry" />
        </mxCell>
        <mxCell id="-8ZKRgQTg2YevrRXHyow-11" value="" style="aspect=fixed;sketch=0;html=1;dashed=0;whitespace=wrap;fillColor=#2875E2;strokeColor=#ffffff;points=[[0.005,0.63,0],[0.1,0.2,0],[0.9,0.2,0],[0.5,0,0],[0.995,0.63,0],[0.72,0.99,0],[0.5,1,0],[0.28,0.99,0]];shape=mxgraph.kubernetes.icon2;kubernetesLabel=1;prIcon=crd" vertex="1" parent="1">
          <mxGeometry x="380" y="210" width="50" height="48" as="geometry" />
        </mxCell>
        <mxCell id="aLlqt8y1JiUJnb-y8_kx-1" value="" style="shape=image;verticalLabelPosition=bottom;labelBackgroundColor=default;verticalAlign=top;aspect=fixed;imageAspect=0;image=data:image/svg+xml,PHN2ZyB4bWxuczp4bGluaz0iaHR0cDovL3d3dy53My5vcmcvMTk5OS94bGluayIgeG1sbnM9Imh0dHA6Ly93d3cudzMub3JnLzIwMDAvc3ZnIiB4bWw6c3BhY2U9InByZXNlcnZlIiBzdHlsZT0iZW5hYmxlLWJhY2tncm91bmQ6bmV3IDAgMCA2NCA2NDsiIGhlaWdodD0iNjQiIHdpZHRoPSI2NCIgdmlld0JveD0iMCAwIDY0IDY0IiB5PSIwcHgiIHg9IjBweCIgaWQ9IkxheWVyXzEiIHZlcnNpb249IjEuMSI+JiN4YTs8c3R5bGUgdHlwZT0idGV4dC9jc3MiPiYjeGE7CS5zdDB7ZmlsbDojMzI2Q0U1O30mI3hhOwkuc3Qxe2ZpbGw6I0MxRDJGNzt9JiN4YTsJLnN0MntmaWxsOm5vbmU7fSYjeGE7PC9zdHlsZT4mI3hhOzxnPiYjeGE7CTxwYXRoIGQ9Ik0xMC4xLDE3Yy0wLjktMC42LTEuMS0xLjctMC41LTIuNmMwLjEtMC4yLDAuMy0wLjQsMC41LTAuNUwzMSwwLjNjMC42LTAuNCwxLjQtMC40LDIsMGwyMC45LDEzLjYmIzEwOyYjOTsmIzk7YzAuOSwwLjYsMS4xLDEuNywwLjUsMi42Yy0wLjEsMC4yLTAuMywwLjQtMC41LDAuNUwzMywzMC41Yy0wLjYsMC40LTEuNCwwLjQtMiwwTDEwLjEsMTd6IiBjbGFzcz0ic3QwIi8+JiN4YTsJPHBhdGggZD0iTTM1LjMsMTkuNGgxLjRjMC42LDAsMS4xLTAuNSwxLjEtMS4xYzAtMC4yLTAuMS0wLjQtMC4xLTAuNUwzMyw5LjVjLTAuMy0wLjUtMS0wLjctMS41LTAuNCYjMTA7JiM5OyYjOTtjLTAuMiwwLjEtMC4zLDAuMi0wLjQsMC40bC00LjcsOC4yYy0wLjMsMC41LTAuMSwxLjIsMC40LDEuNWMwLjIsMC4xLDAuNCwwLjEsMC41LDAuMWgxLjRjMC42LDAsMS4xLDAuNSwxLjEsMS4xbDAsMHY5LjRsMSwwLjYmIzEwOyYjOTsmIzk7YzAuNywwLjUsMS43LDAuNSwyLjQsMGwxLTAuNnYtOS40QzM0LjIsMTkuOSwzNC43LDE5LjQsMzUuMywxOS40QzM1LjMsMTkuNCwzNS4zLDE5LjQsMzUuMywxOS40eiIgY2xhc3M9InN0MSIvPiYjeGE7CTxwYXRoIGQ9Ik0zMSw2My43YzAuMiwwLjEsMC40LDAuMiwwLjYsMC4zYy0wLjQtMC4yLTAuOC0wLjQtMS4yLTAuNkwzMSw2My43eiBNMjkuOCwzNC4ybC0yLjEsMS4zJiMxMDsmIzk7JiM5O2MwLjcsMC40LDEuNCwwLjgsMi4xLDEuMlYzNC4yeiBNMzQuMiwzOC42YzEuOCwwLjYsMy42LDEsNS41LDEuNWMyLDAuNSw0LDEsNiwxLjZsLTYuNS00LjJjLTEuNy0wLjUtMy40LTEtNS0xLjdMMzQuMiwzOC42eiYjMTA7JiM5OyYjOTsgTTM0LjIsNDkuOVY1MGMwLDAuNS0wLjUsMC45LTEuMSwwLjloLTIuMmMtMC42LDAtMS4xLTAuNC0xLjEtMC45di0xLjJjLTQuNi0xLjItOS4xLTIuNi0xMy02LjJsLTIuNywxLjdjNC4xLDQsOS4yLDUuMywxNC42LDYuNiYjMTA7JiM5OyYjOTtjNSwxLjIsMTAuMSwyLjUsMTQuNCw2LjFsMi43LTEuN0M0Mi41LDUyLjMsMzguNCw1MSwzNC4yLDQ5Ljl6IE0xNi4zLDU0LjFsNy4xLDQuNmMzLjcsMC45LDcuNCwyLjEsMTAuNyw0LjNsMi43LTEuOCYjMTA7JiM5OyYjOTtjLTMuNi0yLjUtNy44LTMuNS0xMi4xLTQuNkMyMS44LDU2LDE5LDU1LjMsMTYuMyw1NC4xeiBNMjkuOCwzOS4xYy0xLjQtMC42LTIuNy0xLjQtMy45LTIuM2wtMi43LDEuOGMyLDEuNiw0LjMsMi42LDYuNiwzLjQmIzEwOyYjOTsmIzk7TDI5LjgsMzkuMXogTTM5LjIsNDIuMWMtMS43LTAuNC0zLjMtMC44LTUtMS4zdjIuNWMwLjYsMC4yLDEuMiwwLjMsMS45LDAuNWM1LjUsMS4zLDExLjEsMi43LDE1LjcsNy4zYzAuMSwwLjEsMC4yLDAuMiwwLjMsMC4zJiMxMDsmIzk7JiM5O2wxLjgtMS4yYzAuMy0wLjIsMC41LTAuNCwwLjYtMC43Yy0wLjItMC4yLTAuNC0wLjQtMC42LTAuNkM0OS44LDQ0LjcsNDQuNiw0My40LDM5LjIsNDIuMUwzOS4yLDQyLjF6IE0zNS42LDQ1LjcmIzEwOyYjOTsmIzk7Yy0wLjUtMC4xLTAuOS0wLjItMS40LTAuM3YyLjRjNC43LDEuMiw5LjUsMi43LDEzLjQsNi40bDIuNy0xLjdjMCwwLDAsMCwwLDBDNDYuMSw0OC4zLDQxLDQ3LjEsMzUuNiw0NS43eiBNMjkuOCw0NC4xJiMxMDsmIzk7JiM5O2MtMy0xLTUuOS0yLjMtOC41LTQuNGwtMi43LDEuN2MzLjMsMi44LDcuMSw0LjEsMTEuMiw1LjJWNDQuMXoiIGNsYXNzPSJzdDIiLz4mI3hhOwk8cGF0aCBkPSJNMTIuNiw0NS43Yy0wLjEtMC4xLTAuMS0wLjEtMC4yLTAuMkwxMC4xLDQ3Yy0wLjEsMC4xLTAuMiwwLjItMC4zLDAuM2MwLjIsMC4yLDAuNCwwLjQsMC42LDAuNiYjMTA7JiM5OyYjOTtjNC4xLDQuMSw5LjMsNS40LDE0LjcsNi43YzQuNiwxLjEsOS40LDIuMywxMy41LDUuNGwyLjctMS44Yy0zLjgtMy04LjMtNC4xLTEzLjEtNS4zQzIyLjgsNTEuNywxNy4xLDUwLjMsMTIuNiw0NS43TDEyLjYsNDUuN3oiIGNsYXNzPSJzdDIiLz4mI3hhOwk8cGF0aCBkPSJNMzkuMiwzNy41bC01LTMuM3YxLjVDMzUuOCwzNi41LDM3LjUsMzcsMzkuMiwzNy41eiBNMzQuMiwzOC42djIuMmMxLjcsMC41LDMuMywwLjksNSwxLjMmIzEwOyYjOTsmIzk7YzUuNCwxLjMsMTAuNiwyLjYsMTQuNyw2LjdjMC4yLDAuMiwwLjQsMC40LDAuNiwwLjZjMC40LTAuOSwwLjItMS45LTAuNi0yLjRsLTguMi01LjNjLTItMC43LTQtMS4yLTYtMS42JiMxMDsmIzk7JiM5O0MzNy44LDM5LjYsMzYsMzkuMSwzNC4yLDM4LjZMMzQuMiwzOC42eiBNMjkuOCwzNi44Yy0wLjctMC40LTEuNC0wLjgtMi4xLTEuMmwtMS45LDEuMmMxLjIsMC45LDIuNiwxLjcsMy45LDIuM0wyOS44LDM2Ljh6JiMxMDsmIzk7JiM5OyBNMzYuMSw0My43Yy0wLjYtMC4yLTEuMi0wLjMtMS45LTAuNXYyLjFjMC41LDAuMSwwLjksMC4yLDEuNCwwLjNjNS40LDEuMywxMC42LDIuNiwxNC43LDYuN2MwLDAsMCwwLDAsMGwxLjgtMS4xJiMxMDsmIzk7JiM5O2MtMC4xLTAuMS0wLjItMC4yLTAuMy0wLjNDNDcuMiw0Ni40LDQxLjUsNDUuMSwzNi4xLDQzLjd6IE0yOS44LDQyYy0yLjQtMC44LTQuNi0xLjktNi42LTMuNGwtMS44LDEuMmMyLjYsMi4xLDUuNSwzLjQsOC41LDQuNFY0MiYjMTA7JiM5OyYjOTt6IE0yOS44LDQ2LjdjLTQuMS0xLjEtNy45LTIuNC0xMS4yLTUuMmwtMS44LDEuMmMzLjgsMy41LDguNCw1LDEzLDYuMlY0Ni43eiBNMzQuMiw0OS45YzQuMywxLjEsOC4zLDIuNCwxMS42LDUuNGwxLjgtMS4yJiMxMDsmIzk7JiM5O2MtNC0zLjctOC43LTUuMi0xMy40LTYuNEwzNC4yLDQ5Ljl6IE0xNC4yLDQ0LjRsLTEuOCwxLjJjMC4xLDAuMSwwLjEsMC4xLDAuMiwwLjJjNC41LDQuNSwxMC4yLDUuOSwxNS43LDcuMyYjMTA7JiM5OyYjOTtjNC43LDEuMiw5LjMsMi4zLDEzLjEsNS4zbDEuOC0xLjJjLTQuMy0zLjYtOS40LTQuOS0xNC40LTYuMUMyMy40LDQ5LjcsMTguMyw0OC40LDE0LjIsNDQuNHogTTEwLjQsNDcuOWMtMC4yLTAuMi0wLjQtMC40LTAuNi0wLjYmIzEwOyYjOTsmIzk7Yy0wLjcsMC43LTAuNywxLjksMCwyLjZjMC4xLDAuMSwwLjIsMC4yLDAuMywwLjJsNi4xLDRjMi43LDEuMSw1LjYsMS44LDguNCwyLjVjNC40LDEuMSw4LjUsMi4xLDEyLjEsNC42bDEuOS0xLjImIzEwOyYjOTsmIzk7Yy00LjEtMy4xLTguOS00LjMtMTMuNS01LjRDMTkuNyw1My4zLDE0LjUsNTIsMTAuNCw0Ny45TDEwLjQsNDcuOXogTTMwLjQsNjMuM2MwLjQsMC4yLDAuOCwwLjQsMS4yLDAuNmMwLjUsMC4xLDEsMCwxLjQtMC4zbDEtMC43JiMxMDsmIzk7JiM5O2MtMy4zLTIuMi03LTMuMy0xMC43LTQuM0wzMC40LDYzLjN6IiBjbGFzcz0ic3QwIi8+JiN4YTs8L2c+JiN4YTs8L3N2Zz4=;" vertex="1" parent="1">
          <mxGeometry x="155" y="172" width="38" height="38" as="geometry" />
        </mxCell>
        <mxCell id="aLlqt8y1JiUJnb-y8_kx-2" value="" style="shape=image;verticalLabelPosition=bottom;labelBackgroundColor=default;verticalAlign=top;aspect=fixed;imageAspect=0;image=data:image/svg+xml,PHN2ZyB4bWxucz0iaHR0cDovL3d3dy53My5vcmcvMjAwMC9zdmciIGhlaWdodD0iNjQiIHdpZHRoPSI2NCIgdmlld0JveD0iOS4yOCAtOC4yOCA2NCA2NCI+PGcgZmlsbD0iI2ZlZmVmZSI+PHBhdGggZD0iTTM3Ljc0NSA0My42MjNjLjAwNSAwIC4wMS4wMTcuMDEuMDVsLjAxNy43LjEwNS0uNTM0Yy0uMDI4LS4zMzYtLjI5Mi0uMTY1LS4xMzItLjIwNHpNNTIuMiAyNC43ODJjLS4wMDUuMDA1LS4wMTcuMDA1LS4wMjIuMDEuMDA1LjAwNS4wMTcuMDEuMDIyLjAxNy0uMDA1LS4wMDUgMC0uMDE3IDAtLjAyOHoiLz48cGF0aCBkPSJNNDMuMDk0IDEuNjU0eiIvPjwvZz48cGF0aCBmaWxsPSIjZmU3MzNlIiBkPSJNNTAuODM1IDQ4LjEwMmwuMTMyLTIuNDAyYy4yMi0xLjc0Ni4wMS0zLjUzLjQ2OC01LjI1Ni4yMjYtLjg5Mi0uNDk2LTEuOTQuNDMtMi43MjJsLS4yMy0uNzZjLS4yNi0uNDMtLjEyNy0uODQ4LjAyOC0xLjI2Ny0uMDE3LTEuNTMyIDAtMy4wNjMuMjc1LTQuNTc4bC4yNTMtNi4zMmMtLjAwNS0uMDA1LS4wMTctLjAxLS4wMjItLjAxNy00LjUgMi4wNjYtOC43NDMtLjgyNi05LjQ2NS00LjI5Ny0uNDc0LTIuMjgtLjIyLTQuNDM1IDEuNTYtNi4xNzYuMjk3LS4yOTIuNTUtLjYyOC44MjYtLjk0OC43MjctNC4zNi4yLTguMzYtMy41MDQtMTEuNDc2LjU1Ni0uMzIgMS4wNTgtLjEzOCAxLjUtLjIyLTQuNTYtMS4xNS0xMC4xIDEuOTc1LTExLjkzNiA2Ljc0Ny0uNTUgMS40MzItLjg0OCAyLjktLjc1NSA0LjQ0NiA0LjUzLTIuMSA4LjYuNDA4IDkuNzA3IDQuMjI2IDEuMTYyIDMuOTcyLTEuOTM0IDguMTc2LTYuMDUgOC4yMzYtMS4yLjAxNy0yLjM0LS4xODItMy40NzYtLjUxOGwuMjUzIDYuNTc4Yy4xNiAxLjQzOC4zMyAyLjg3LjI2IDQuMzJsLjAzMyAxLjAyNS0uMDMzLjY4M2MuMzM2IDEuMzc3LjQwOCAyLjc5My41MTIgNC4yMDRhLjc4Ljc4IDAgMCAxLS4wMjItLjExYy4wMDUuMDQuMDE3LjA3Mi4wMjIuMWwuMzQ3IDcuMTk1Yy4wNzIuOTkyLS4yODYgMS40ODctMS4yIDEuNzQtMS4wOC4zMDMtMi4xNDMuNjY3LTMuMjEyIDEuMDA4IDEuNDMyLjE5OCAyLjg0My4yMiA0LjI1My4xODcgMS41MjYtLjAzMyAyLjIyLS43IDIuMzctMi4yMjZsLjI2NC0yLjg5Mi4yOTctNS4yNDVoLjIxNXY0Ljk4NmwuMDg4IDIuMjdjLjIyIDMuNTIuMzI1IDMuNDk4LTMuMTg0IDQuMi0uMDgzLjAxNy0uMTU0LjA2Ni0uMjMuMWwuNjI4LjQyYy4wNjYuMDE3LjEyLjA0NC4xNTQuMTA1LjgzNy4wMDUgMS42OC4wNzcgMi41MDcgMCAxLjUwNC0uMTQzIDIuMjE1LS45NDggMi4zMjUtMi40NC4wNjYtLjk2LjE2NS0xLjkxNy4yNDgtMi44NzYtLjEzMi0xLjI3My4wNi0yLjUyMy4yOTctMy43NzRsLS4wMTctLjdjMC0uMDMzLS4wMS0uMDU1LS4wMS0uMDUtLjE2LjA0LjEwNS0uMTMyLjEzMi4yMDRsLjA4OC0uNDQ2djUuNzc0bC4wNSAyLjAyN2MuMDI4IDIuNDUyLS4xMjcgMi42NzItMi40NjMgMy4zNzItLjY0NS4xOTMtMS4zMTcuMy0xLjk1Ni41MjMtLjQ2My4xNi0xLjA1Mi4wNzItMS40ODcuNjE3IDEuOS0uMDcyIDMuNjguMTQzIDUuNDUtLjE0MyAxLjgzLS4yOTcgMi41NTYtMS4wMzYgMi45My0yLjgyLjI3NS0xLjMuNC0yLjY2Ljg5Mi00IC4wNzIuMTQzLjEyNy4yLjE0My4yODZsLjc1IDMuNzI0Yy4zNDIgMS43MzUgMS4wNDcgMi40NzQgMi44IDIuNzgyIDEuODI0LjMxNCAzLjY3LjEgNS41Ni4xNDMtLjI3LS40NjMtLjY5NC0uMzg2LTEuMDM2LS40ODUtMS4xNzMtLjM0Mi0yLjM3LS42MzQtMy41Mi0xLjAzLS44MzctLjI5Mi0xLjQzOC0uODI2LTEuNDI3LTEuODU3bC4wMS04LjQ2Mkg0NWwuMzU4IDUuM2MuMjE1IDQuMDg4LjcgNC41MzQgNC44MDQgNC4zMDguMjMtLjM4Ni44LS4wODMgMS4wMTQtLjQ5Ni0uOTg2LS4wMDUtMS44NDYtLjQ4LTIuNzUtLjc4Mi0uNTA3LS4xNy0uNzkzLS42MjgtLjc4Mi0xLjIuMDQ0LTIuODk4LS4wNjYtNS44MDcuMzI1LTguNjk0bC42MTIgNy4yNzhjLjA4OCAxLjEzNS42IDIuMDIyIDEuOCAyLjEgMS42LjEgMy4yMjMuMDI4IDQuODM3LjAyOC0uODU0LS40My0xLjczLS42ODMtMi42LS45Ni0xLjk3Mi0uNjM0LTEuOTYtLjY0LTEuNzgtMi42NDR6TTM4LjQyOCA2Ljc2N2ExLjQ4IDEuNDggMCAwIDEtMS40NjUgMS40NjVjLS44NjUuMDE3LTEuNTE1LS40OC0xLjUzMi0xLjYwMy4wOTQtLjgxNS41NS0xLjM3MiAxLjUyLTEuMzk0IDEuMDMtLjAxNyAxLjQ5My42NzggMS40NzYgMS41MzJ6bTYuNjIyIDI0LjA5N2MuMDA1IDIuMjMtMS43MDIgNC4xNzYtMy42NTMgNC4xNy0xLjg0LS4wMDUtMy43Mi0yLjE3Ni0zLjY1My00LjIyNmwtLjM0Mi0yLjA2NmMxLjMxNy44OTggMi40MjQgMS44MTggMy45MDYgMS44NSAxLjUxNS4wMjggMi43MDUtLjc1IDMuOTQ1LTEuNjU4LjI2NC43MjctLjQwMiAxLjI5NS0uMjA0IDEuOTI4eiIvPjxwYXRoIGZpbGw9IiNiNWQyZjMiIGQ9Ik0zMS4wOTUgMzUuN2wtLjMyLS4xMjdjLTEuNS0uNjE3LTIuODE1LTEuNTY1LTQuMDI3LTIuNjE3LTQuMzc0LTMuNzgtNy4yNi04LjUxMi03Ljk2LTE0LjI1Mi0uNzkzLTYuNTIzLjY2Ny0xMi41NDUgNS4wMi0xNy43MTggMy45NzItNC43MTYgOS4wMzUtNy40NjUgMTUuMDgtOC4xIDYuNzE2LS43IDEyLjc0OCAxLjE4IDE3LjgyOCA1LjgxOCA0LjIzNyAzLjg2NyA2LjcgOC42NiA3LjM0NCAxNC4yOTYuNTQgNC44LS4zMjUgOS40MzctMi43OTMgMTMuNjUyLTIuMjQyIDMuODMtNS4yMjggNi45MzYtOS4yNjcgOC45MDNsLS4zMy4xNmMtLjE1NC40Mi0uMjkyLjgzNy0uMDI4IDEuMjY3LjA5NC0uMDgzLjE3Ni0uMTg3LjI4Ni0uMjQ4IDYuMS0zLjIyOCAxMC4zMy04LjAyNyAxMi4zMDgtMTQuNzA0LjE3LS41NjcuNDM1LS44NDggMS4wNy0uNzgyLjg2LjA4OCAxLjEtLjQ4NSAxLjEtMS4ybC4wMDUtOC4yNDJjMC0uNi0uMTQzLTEuMjQtLjc1NS0xLjMwNi0xLjEyNC0uMTMyLTEuMjYyLS45NTMtMS40ODctMS43NTJDNjIuODM0IDQuMSA2MC4zLjIyMiA1Ni41LTIuNzQ4Yy03Ljc2OC02LjEtMTYuMjk2LTcuMi0yNS4yNDMtMy4wOEMyNC42MTYtMi43NyAyMC4zOCAyLjUzNiAxOC40NjMgOS42MzdjLS4xMi40NC0uMDY2Ljk2NC0uODE1LjgtMS4wNy0uMjItMS40Ny40MDgtMS40NzYgMS4zNTVsLS4wMDUgOC4yNDJjMCAuOTE1LjQ2MyAxLjQgMS4zNDQgMS4xODQuOC0uMTk4IDEuMDAzLjIwNCAxLjE2OC44Mi43MTYgMi42MzMgMS45MTIgNS4wNCAzLjUzIDcuMjQgMi4zNyAzLjIxMiA1LjI1NiA1LjggOC45MjUgNy40MzJsLS4wNC0xLjAzeiIvPjxwYXRoIGZpbGw9IiNmZTY4NGIiIGQ9Ik0zMS4xIDM3LjM5OGMtLjgxNSAyLjI4Ni0yLjk4NiAyLjIzLTQuODMyIDIuODA0IDEuMzg4LjM1OCAyLjguNzcgNC4xODcuNTM0LjgyNi0uMTQzLjk4Ni4xNTQgMS4xMDcuNjQ1bC4wMjguMTE2LjAyMi4xYy0uMTA1LTEuNDE2LS4xNzYtMi44MjYtLjUxMi00LjJ6Ii8+PHBhdGggZmlsbD0iI2ZlNjQ0NiIgZD0iTTUxLjQzNSA0MC40NWMxLjc2My44IDMuNDI3LS4wMDUgNS4xMy0uMjM3LTEuNjY0LS43MDUtMy44MTgtLjM0Mi00LjY5NC0yLjQ4NS0uOTMuNzgyLS4yIDEuODMtLjQzNSAyLjcyMnoiLz48cGF0aCBmaWxsPSIjZmVkNmM4IiBkPSJNMzcuOTY1IDQzLjM4bC0uMDg4LjQ0Ni0uMTA1LjUzNGMtLjIzNyAxLjI1LS40MyAyLjUtLjI5NyAzLjc3NC40MTMuMjE1LjEuNzgyLjUgMS4wMTRWNDMuMzh6Ii8+PHBhdGggZmlsbD0iI2ZlZWJlMyIgZD0iTTM0LjczIDQxLjM2NWwtLjI5NyA1LjI0NS41MTItLjI2di00Ljk4NmgtLjIxNXoiLz48cGF0aCBmaWxsPSIjZmU5MTY2IiBkPSJNMjkuNTUzIDUzLjQ1MmgyLjg0M2wtLjE1NC0uMTA1LS42MjgtLjQyYy0uNjIzLS4wMzMtMS4yMDcuMTA1LTIuMDYuNTIzeiIvPjxwYXRoIGZpbGw9IiNmZThmNjQiIGQ9Ik01MC4xNjggNTMuNDUyaDIuNzY2Yy0uNTYyLS4zMjUtMS4xMTMtLjYtMS43NTItLjQ5Ni0uMjE1LjQyLS43ODguMS0xLjAxNC40OTZ6Ii8+PHBhdGggZmlsbD0iI2UyZjVmYyIgZD0iTTUyLjAwMyAzNS41NGM0LjAzOC0xLjk2IDcuMDItNS4wNjggOS4yNjctOC45MDMgMi40NjgtNC4yMTUgMy4zMzMtOC44NTMgMi43OTMtMTMuNjUyQzYzLjQzIDcuMzQ1IDYwLjk2IDIuNTUyIDU2LjcyLTEuMyA1MS42NC01Ljk0MyA0NS42MDctNy44MjcgMzguOS03LjEyMmMtNi4wMzguNjI4LTExLjEwNyAzLjM4My0xNS4wOCA4LjFDMTkuNDU0IDYuMTUgMTggMTIuMTcgMTguNzkzIDE4LjY5NGMuNyA1Ljc0NiAzLjU4NyAxMC40NzMgNy45NiAxNC4yNTIgMS4yMTggMS4wNTIgMi41MjMgMi4wMDUgNC4wMjcgMi42MTcuMTA1LjA0NC4yLjA4OC4zMi4xMjcuMDcyLTEuNDUtLjEtMi44OC0uMjYtNC4zMmwtLjMzLS4yMzdjLTEuMTE4LS44LTIuMDc3LTEuODA3LTMuMDQtMi43ODgtLjI5Mi0uMjk3LS42NTYtLjU1LS42NTYtMS4wMzYtLjY1LjQ2OC0xLjExOC4xNDMtMS41LS4zNzUtMi4xMTYtMi44ODctMy4zOTQtNi4wODgtMy41NjQtOS43LS4xNTQtMy4xODQuMTMyLTYuMjggMS40Ny05LjI2IDEuNzAyLTMuNzg1IDQuMzItNi42NzcgNy44MzQtOC44MjYuNTk1LS4zNjQuOTM3LS4wNCAxLjM1LjIzLjQwMi0uMDQuNzYtLjE3NiAxLjAyLS41MDdsLS4wNS0uMTE2Yy0uMzUzLS43NDQtLjM3LTEuNTg3LjQ4LTEuNzg1Ljg1NC0uMjA0IDEuMzQuNSAxLjM0NCAxLjM4OEM0MS41NzItMy43MjYgNDcuNS0yLjg3NyA1Mi44NSAxLjIwNWM0IDMuMDUyIDYuMjkyIDcuMTQ1IDcgMTIuMTM3LjkwNCA2LjQxOC0xLjI2NyAxMS43NC01Ljc0IDE2LjI0LS41My41My0xLjEyNCAxLjAwOC0xLjc5NiAxLjM2NmExMC4wOSAxMC4wOSAwIDAgMS0uMzQ3LjE3MWMtLjI3NSAxLjUxNS0uMjkyIDMuMDQ3LS4yNzUgNC41NzhsLjMyLS4xNnoiLz48cGF0aCBmaWxsPSIjY2RlY2Y2IiBkPSJNNTQuMSAyOS42YzQuNDY4LTQuNSA2LjY0LTkuODIzIDUuNzQtMTYuMjQtLjctNC45OTctMi45OTItOS4xLTctMTIuMTM3QzQ3LjUtMi44NyA0MS41NTctMy43MTIgMzUuMi0xLjYyNGMtLjAxLjAwNS0uMDIyLjAxNy0uMDMzLjAyMi0uNS4zMi0uODkyIDEuMDA4LTEuNjE0LjU3OC0uMDQ0LS4wMjgtLjA4My0uMDUtLjEyNy0uMDgzLS4yNi4zMy0uNjEyLjQ2OC0xLjAyLjUwNy0uMDE3LjA2Ni0uMDQuMTI3LS4wNi4xOTMtLjQ1NyAxLjI4NC0xLjgzIDEuNjItMi43NSAyLjQtMi40OTYgMi4wODgtNC4zNDcgNC42LTUuNDM4IDcuNjItMS43NTIgNC44OC0xLjM5NCA5LjY2My45NTMgMTQuMjguMzguNzUuODQ4IDEuNDYgMS4zNSAyLjEzOGExLjggMS44IDAgMCAxIC4zNTMgMS4yODRjMCAuNDk2LjM2NC43NTUuNjU2IDEuMDUyLjk3Ljk4IDEuOTIzIDEuOTc4IDMuMDQgMi43ODhsLjMzLjIzNy0uMjUzLTYuNTc4Yy0xLjkxNy0xLjI1Ni0zLjMxNy0yLjg1NC0zLjU2LTUuMjM0LS4zMDMtMi45MzYuOTMtNS4xMDcgMy4zMzMtNi42ODguMDEtLjAwNS4wMjItLjAxNy4wMzMtLjAyMi0uMDk0LTEuNTQzLjIwNC0zLjAyLjc1NS00LjQ0NkMzMi45NzQgMy42NSAzOC41MTYuNTIgNDMuMDgzIDEuNjY1YzMuMDQ3LjQ5NiA1LjUzNyAxLjg4IDcuMzIyIDQuNDE4IDEuNDI3IDIuMDMzIDIuMTY1IDQuMjc1IDIgNi43NzYgMS43MiAxLjMwNiAzLjEwNyAyLjgzNyAzLjMzMyA1LjEwMi4zMDMgMy4wNDctLjk5NyA1LjI3Mi0zLjU2IDYuODI2di4wMjhsLS4yNTMgNi4zMmMuMTItLjA1NS4yMzctLjEuMzQ3LS4xNy42ODMtLjM1OCAxLjI3OC0uODM3IDEuODA3LTEuMzcyeiIvPjxwYXRoIGZpbGw9IiNmZTZiM2MiIGQ9Ik00Ni42NyAxMi42MTJjMS45LS45MyAzLjcyNC0uNDMgNS41NDguMTdsLjIwNC4wNjZjLjE1NC0yLjUwNy0uNTg0LTQuNzUtMi02Ljc3Ni0xLjc4NS0yLjU0LTQuMjc1LTMuOTIzLTcuMzA1LTQuNDEzLS40NjguMDg4LS45Ny0uMS0xLjUyNi4yMiAzLjcyNCAzLjExOCA0LjIzNyA3LjExOCAzLjUwNCAxMS40NzZsMS41ODctLjc0NHoiLz48cGF0aCBmaWxsPSIjZmU2MTQyIiBkPSJNNTUuNzYgMTcuOTU2Yy0uMjI2LTIuMjY0LTEuNjE0LTMuNzk2LTMuMzMzLTUuMTAybC0uMjA0LS4wNjZjLTEuODMtLjYtMy42NTgtMS4xMDItNS41NDgtLjE3bC0xLjI0LjYtLjM0Mi4xNi0uODI2Ljk0OGMtMS43ODUgMS43NC0yLjAzMyAzLjg5NS0xLjU2IDYuMTc2LjcyMiAzLjQ3NiA0Ljk2NCA2LjM3IDkuNDcgNC4zMDguMDA1LS4wMDUuMDE3LS4wMDUuMDIyLS4wMSAyLjU2Mi0xLjU2IDMuODY3LTMuOCAzLjU2LTYuODN6bS02LjczOCA2LjA4OGMtMi45MjUtLjAyMi01LjIwNi0yLjM0Ny01LjE4LTUuMjgzLjAyOC0yLjg5MiAyLjQtNS4xODQgNS4zMDUtNS4xNjIgMi45My4wMjIgNS4xNzMgMi4zMyA1LjE1IDUuMjk0LS4wMjIgMi45NDItMi4zMTQgNS4xOC01LjI3OCA1LjE1eiIvPjxwYXRoIGZpbGw9IiNmZTYxNDMiIGQ9Ik0zMC4zNTcgMTIuODdjLTIuNDAyIDEuNTgtMy42MzYgMy43NTItMy4zMzMgNi42ODguMjQyIDIuMzggMS42NDIgMy45NzggMy41NDggNS4yMjggMS4xNDYuMzQyIDIuMjguNTQgMy40ODcuNTIzIDQuMS0uMDYgNy4yMTItNC4yNiA2LjA1LTguMjM2LTEuMS0zLjgxNi01LjE4NS02LjMyMy05LjctNC4yMjMtLjAyMi4wMDUtLjAzMy4wMTctLjA0NC4wMjJ6bTMuMjg0IDExLjE3M2MtMy4wMDMuMDEtNS4zMjctMi4yOTItNS4zMTYtNS4yNzguMDA1LTIuOTMgMi4yOTItNS4yIDUuMjQtNS4yMTcgMi45OC0uMDE3IDUuMzYgMi4zMyA1LjM1IDUuMjYtLjAxIDIuODgtMi4zNzQgNS4yMjMtNS4yNzIgNS4yMzR6Ii8+PHBhdGggZmlsbD0iIzA3MDkwOSIgZD0iTTM4LjQ0IDMxLjI5NGMtLjIwNC0uMjA0LS4zNTMtLjQ4LS42OTQtLjQ4NS0uMDY2IDIuMDUgMS44MDcgNC4yMiAzLjY1MyA0LjIyNiAxLjk1Ni4wMDUgMy42NTgtMS45NCAzLjY1My00LjE3LS43MzguMzgtMS4yMDcgMS4xNjItMi4wNTUgMS4zOTQtMS43LjQ2My0zLjI0NS4zNDctNC41NTYtLjk2NHoiLz48cGF0aCBmaWxsPSIjZmRmY2ZiIiBkPSJNNDUuMjU0IDI4LjkzNmMtMS4yNC45LTIuNDI0IDEuNjg2LTMuOTQ1IDEuNjU4LTEuNDg3LS4wMjgtMi42LS45NTMtMy45MDYtMS44NWwuMzQyIDIuMDY2Yy4zNDIuMDEuNS4yOC42OTQuNDg1IDEuMzA2IDEuMyAyLjg2NSAxLjQyNyA0LjU1Ni45NjQuODQ4LS4yMyAxLjMxNy0xLjAwOCAyLjA1NS0xLjM5NC0uMTk4LS42MzQuNDY4LTEuMi4yMDQtMS45Mjh6Ii8+PHBhdGggZmlsbD0iI2ZlYTc3NyIgZD0iTTM2Ljk1MiA1LjI0Yy0uOTc1LjAxNy0xLjQzMi41NzMtMS41MiAxLjM5NC4wMTcgMS4xMjQuNjY3IDEuNjE0IDEuNTMyIDEuNjAzYTEuNDggMS40OCAwIDAgMCAxLjQ2NS0xLjQ2NWMuMDE3LS44Ni0uNDQ2LTEuNTU0LTEuNDc2LTEuNTMyeiIvPjxwYXRoIGZpbGw9IiNmZGZlZmUiIGQ9Ik0yNi44MDQgMjcuM2ExLjggMS44IDAgMCAwLS4zNTMtMS4yODRjLS40OTYtLjY3OC0uOTctMS4zODgtMS4zNS0yLjEzOC0yLjM0Ny00LjYxNy0yLjctOS40LS45NTMtMTQuMjggMS4xLTMuMDMgMi45NDItNS41MyA1LjQzOC03LjYyLjkyLS43NyAyLjI5Mi0xLjEwMiAyLjc1LTIuNC4wMjItLjA2LjA0NC0uMTI3LjA2LS4xOTMtLjQxMy0uMjctLjc1NS0uNTk1LTEuMzUtLjIzLTMuNTE1IDIuMTUtNi4xMzIgNS4wNC03LjgzNCA4LjgyNi0xLjM0IDIuOTgtMS42MjUgNi4wNzctMS40NyA5LjI2LjE3NiAzLjU5OCAxLjQ1IDYuODA0IDMuNTY0IDkuNy4zOC41MTguODU0Ljg0MyAxLjUuMzc1eiIvPjxwYXRoIGZpbGw9IiNmYmZkZmUiIGQ9Ik0zNS4xNS0xLjYwMmMuMDEtLjAwNS4wMjItLjAxNy4wMzMtLjAyMi0uMDEtLjg5OC0uNS0xLjU5Mi0xLjM0NC0xLjM4OHMtLjgzMiAxLjA0Ny0uNDggMS43ODVsLjA1LjExNmExLjM2IDEuMzYgMCAwIDAgLjEyNy4wODNjLjcyMi40MzUgMS4xMTMtLjI2IDEuNjE0LS41NzN6Ii8+PHBhdGggZmlsbD0iI2ZlZmVmZSIgZD0iTTU0LjMgMTguODk4Yy4wMjItMi45NTgtMi4yMi01LjI2Ny01LjE1LTUuMjk0LTIuOTItLjAyMi01LjI3OCAyLjI3LTUuMzA1IDUuMTYyYTUuMTggNS4xOCAwIDAgMCA1LjE3OSA1LjI4M2MyLjk2NC4wMjIgNS4yNTYtMi4yMTUgNS4yNzgtNS4xNXptLTUuMDIuNTczYy0uOTkyLjAxNy0xLjU3LS41NDUtMS42NTgtMS41Mi0uMDgzLS45LjczMy0xLjc1NyAxLjYzNi0xLjY5Ny45Ny4wNzIgMS41MTUuNjQgMS42MyAxLjY1My0uMTMyLjkwNC0uNTk1IDEuNTQ4LTEuNiAxLjU2NXptLTE1LjcxNy01LjkxN2MtMi45NDcuMDE3LTUuMjI4IDIuMjg2LTUuMjQgNS4yMTctLjAwNSAyLjk4NiAyLjMxNCA1LjMgNS4zMTYgNS4yNzggMi44OTgtLjAxIDUuMjYtMi4zNTIgNS4yNzItNS4yMjguMDA1LTIuOTM2LTIuMzc0LTUuMjgzLTUuMzUtNS4yNjd6bS4wMDUgNS45MTdjLS45OC4wMS0xLjU3LS41NS0xLjY0Ny0xLjUzNy0uMDcyLS45Ljc1LTEuNzUyIDEuNjU4LTEuNjc1Ljk2LjA4MyAxLjUyLjY0IDEuNiAxLjY1My0uMTIuOTMtLjYyOCAxLjU0OC0xLjYyIDEuNTZ6Ii8+PHBhdGggZmlsbD0iIzA5MGIwYiIgZD0iTTQ5LjI2IDE2LjI1NGMtLjkwNC0uMDY2LTEuNzIuNzgyLTEuNjM2IDEuNjk3LjA4OC45OC42NjcgMS41MzcgMS42NTggMS41MiAxLjAwOC0uMDE3IDEuNDc2LS42NiAxLjYtMS41NjUtLjExNi0xLjAxNC0uNjYtMS41OC0xLjYzLTEuNjUzeiIvPjxwYXRoIGZpbGw9IiMwOTBjMGMiIGQ9Ik0zMy41OCAxNi4yNmMtLjktLjA3Ny0xLjczLjc2Ni0xLjY1OCAxLjY3NS4wNzcuOTg2LjY2NyAxLjU0OCAxLjY0NyAxLjUzNy45OTItLjAxIDEuNS0uNjI4IDEuNjItMS41Ni0uMDk0LTEuMDItLjY1Ni0xLjU3Ni0xLjYtMS42NTN6Ii8+PC9zdmc+;" vertex="1" parent="1">
          <mxGeometry x="220" y="172" width="38" height="38" as="geometry" />
        </mxCell>
        <mxCell id="aLlqt8y1JiUJnb-y8_kx-4" value="OR" style="text;html=1;align=center;verticalAlign=middle;whiteSpace=wrap;rounded=0;" vertex="1" parent="1">
          <mxGeometry x="176" y="176" width="60" height="30" as="geometry" />
        </mxCell>
      </root>
    </mxGraphModel>
  </diagram>
</mxfile>
